<?xml version="1.0" encoding="UTF-8"?>
<svg width="512px" height="512px" viewBox="0 0 512 512" version="1.1" xmlns="http://www.w3.org/2000/svg" xmlns:xlink="http://www.w3.org/1999/xlink">
    <title>icon-instagram</title>
    <g id="Page-1" stroke="none" stroke-width="1" fill="none" fill-rule="evenodd">
        <g id="icon-instagram" fill="#FFFFFF" fill-rule="nonzero">
            <path d="M363.273,0 L148.728,0 C66.719,0 0,66.719 0,148.728 L0,363.272 C0,445.281 66.719,512 148.728,512 L363.272,512 C445.281,512 512,445.281 512,363.273 L512,148.728 C512,66.719 445.281,0 363.273,0 Z M472,363.272 C472,423.225 423.225,472 363.273,472 L148.728,472 C88.775,472 40,423.225 40,363.273 L40,148.728 C40,88.775 88.775,40 148.728,40 L363.272,40 C423.225,40 472,88.775 472,148.728 L472,363.272 Z" id="Shape"></path>
            <path d="M256,118 C179.906,118 118,179.906 118,256 C118,332.094 179.906,394 256,394 C332.094,394 394,332.094 394,256 C394,179.906 332.094,118 256,118 Z M256,354 C201.963,354 158,310.037 158,256 C158,201.963 201.963,158 256,158 C310.037,158 354,201.963 354,256 C354,310.037 310.037,354 256,354 Z" id="Shape"></path>
            <circle id="Oval" cx="396" cy="116" r="20"></circle>
        </g>
    </g>
</svg>