<?xml version="1.0" encoding="UTF-8"?>
<svg width="31px" height="25px" viewBox="0 0 31 25" version="1.1" xmlns="http://www.w3.org/2000/svg" xmlns:xlink="http://www.w3.org/1999/xlink">
    <title>icon-twitter_black</title>
    <g id="Page-1" stroke="none" stroke-width="1" fill="none" fill-rule="evenodd">
        <g id="icon-twitter_black" fill="#FFFFFF" fill-rule="nonzero">
            <path d="M31,2.9 C29.9,3.4 28.7,3.7 27.5,3.9 C28.8,3.1 29.7,1.9 30.2,0.5 C29,1.2 27.7,1.7 26.3,2 C25.1,0.7 23.5,0 21.8,0 C18.4,0 15.6,2.8 15.6,6.2 C15.6,6.7 15.7,7.2 15.8,7.6 C10.7,7.3 6.1,4.9 3.1,1.1 C2.6,2 2.3,3.1 2.3,4.2 C2.3,6.3 3.4,8.2 5,9.3 C4,9.3 3,9 2.2,8.6 L2.2,8.7 C2.2,11.7 4.3,14.2 7.1,14.7 C6.6,14.8 6,14.9 5.5,14.9 C5.1,14.9 4.7,14.9 4.3,14.8 C5.1,17.2 7.4,19 10,19.1 C7.9,20.8 5.2,21.7 2.4,21.7 C1.9,21.7 1.4,21.7 0.9,21.6 C3.6,23.3 6.9,24.4 10.3,24.4 C21.6,24.4 27.8,15 27.8,6.9 C27.8,6.6 27.8,6.4 27.8,6.1 C29.1,5.2 30.2,4.1 31,2.9 Z" id="Path"></path>
        </g>
    </g>
</svg>